<?xml version="1.0" encoding="UTF-8"?><svg id="b" xmlns="http://www.w3.org/2000/svg" width="300" height="200" viewBox="0 0 300 200"><defs><style>.d{fill:#002169;}.e{fill:#fe3b1f;}.f{fill:#e4e4e4;}.g{fill:#97989a;}.h{fill:#231f20;}</style></defs><g id="c"><path class="e" d="m0,121.18h13.72v.28c-4.93.83-8.51,5.52-8.51,13.7v13.75c0,5.18,2.57,8.02,8.22,8.02h5.38v-6.96h-5.21v-19.09c0-5.46,2.74-8.8,7.67-9.58v-7.01H0v6.91Z"/><path class="e" d="m44.1,144.38c0,4.12-1.51,6.18-5.32,6.18s-5.32-2.06-5.32-6.18v-19.49h-8.4v17.88c0,10.25,3.69,14.82,13.71,14.82s13.71-4.57,13.71-14.82v-28.5h-8.4v30.12Z"/><path class="e" d="m73.69,137.42l-2.29-.28c-2.41-.27-4.03-1.28-4.03-3.17,0-1.67,1.62-2.84,4.03-2.84s4.36.89,6.6,3.18l5.37-4.79c-2.58-3.4-6.55-5.29-11.92-5.29-6.43,0-11.81,3.12-11.81,10.25,0,5.29,3.03,8.3,10.02,9.41l1.74.28c3.52.56,4.53,1.95,4.53,3.45,0,1.89-1.85,3.06-4.31,3.06-3.36,0-5.99-1.51-8.34-4.4l-5.32,5.02c3.08,3.9,7.28,6.29,13.44,6.29,7.39,0,12.25-3.73,12.25-10.19,0-5.52-2.91-9.08-9.96-9.97"/><path class="e" d="m147.85,144.12v-6.7c0-4.12-1.85-6.18-5.65-6.18s-5.49,2.12-5.49,6.24v.28h5.66v6.24h-.84c-2.69,0-4.76,2.06-4.76,4.79v1.72h5.15v6.41h-6.1c-4.42,0-6.77-2.4-6.77-5.62v-.17c0-3.57,2.85-6.95,6.88-7.35v-.34h-7.61v-5.68c0-7.3,4.13-13.54,13.88-13.54s13.71,4.57,13.71,14.82v6.24c0,3.4,1,5.07,3.8,5.07,2.41,0,4.93-1.28,4.93-3.9v-21.55h8.39v32.03h-8.39v-4.96h-.34c-1.17,3.23-3.58,5.63-8,5.63-5.49,0-8.45-4.01-8.45-10.92v-2.55Z"/><path class="e" d="m165.48,114.27h-17.63v6.72l17.13.18c5.2,0,8.06-2.74,8.06-8.37v-2.8h-7.56v4.26Z"/><path class="e" d="m213.75,121.18h12.59v.28c-4.93.83-8.51,5.52-8.51,13.7v13.75c0,5.18,2.57,8.02,8.23,8.02h5.38v-6.96h-5.21v-19.09c0-5.46,2.74-8.8,7.67-9.58v-7.01h-20.14v6.91Z"/><path class="e" d="m256.01,124.22c-5.09,0-7.78,2.73-8.96,6.02h-.33v-5.35h-8.4v32.02h8.4v-20.66c0-3.23,3.07-4.79,6.1-4.79,3.52,0,4.76,2.06,4.76,6.24v19.21h8.39v-20.33c0-7.85-3.47-12.36-9.96-12.36"/><path class="e" d="m291.6,124.89v19.49c0,4.12-1.51,6.18-5.32,6.18s-5.49-2.12-5.49-6.24v-.29h5.66v-6.24h-.84c-2.69,0-4.76-2.06-4.76-4.79v-1.72h5.15v-6.41h-6.1c-4.42,0-6.77,2.39-6.77,5.63v.17c0,3.56,2.86,6.95,6.88,7.35v.33h-.56c-4.25,0-7.05,2.62-7.05,7.25v.5c0,7.3,5.04,11.47,13.88,11.47,10.01,0,13.71-4.57,13.71-14.82v-17.88h-8.4Z"/><path class="e" d="m198.92,124.89v19.49c0,4.12-1.51,6.18-5.32,6.18s-5.49-2.12-5.49-6.24v-.29h5.66v-6.24h-.84c-2.68,0-4.76-2.06-4.76-4.79v-1.72h5.15v-6.41h-6.1c-4.42,0-6.77,2.39-6.77,5.63v.17c0,3.56,2.86,6.95,6.88,7.35v.33h-.56c-4.25,0-7.05,2.62-7.05,7.25v.5c0,7.3,5.04,11.47,13.88,11.47,10.01,0,13.71-4.57,13.71-14.82v-17.88h-8.4Z"/><path class="e" d="m198.92,121.17h10.54v-6.9h-3.61c-3.83,0-6.93,3.09-6.93,6.9"/><polygon class="e" points="117.32 124.89 108.92 124.89 108.92 135.71 117.32 133.44 117.32 124.89"/><path class="e" d="m123.21,134.04l-20.36,5.52v3.88h6.07v.94c0,4.12-1.51,6.18-5.32,6.18s-5.31-2.06-5.31-6.18v-19.5h-8.4v17.88c0,10.25,3.69,14.82,13.71,14.82s13.51-4.4,13.68-14.14h5.92v-9.4Z"/><polygon class="d" points="6.94 178.9 0 178.9 0 173.97 19.46 173.97 19.46 178.9 12.52 178.9 12.52 199.56 6.94 199.56 6.94 178.9"/><polygon class="d" points="227.86 173.97 222.42 173.97 222.42 181.59 227.86 180.12 227.86 173.97"/><path class="d" d="m231.43,186.12v-5.64l-12.22,3.31v2.33h3.22v7.85c0,3.66,1.98,5.59,5.73,5.59h3.27v-4.2h-3.57v-9.23h3.57Z"/><path class="d" d="m22.75,173.97h5.44v9.66h.22c.7-2.01,2.31-3.69,5.36-3.69,3.93,0,6.02,2.78,6.02,7.6v12.02h-5.43v-11.58c0-2.45-.7-3.65-2.68-3.65-1.76,0-3.48.91-3.48,2.81v12.42h-5.44v-25.59Z"/><path class="d" d="m43.09,194.41c0-4.06,3.16-5.99,8.26-5.99h3.05v-1.21c0-1.86-.92-3.03-3.2-3.03-2.16,0-3.3,1.1-4.14,2.27l-3.23-2.85c1.54-2.26,3.74-3.65,7.78-3.65,5.44,0,8.22,2.48,8.22,7.01v8.41h1.8v4.2h-3.01c-1.8,0-3.12-1.14-3.56-2.89l-.11-.47h-.22c-.59,2.48-2.71,3.8-5.65,3.8-3.86,0-5.98-2.26-5.98-5.59m11.31-.66v-2.27h-2.65c-2.09,0-3.19.77-3.19,2.16v.55c0,1.39.92,2.04,2.54,2.04,1.8,0,3.3-.73,3.3-2.48"/><path class="d" d="m64.52,177.11v-.81c0-1.54.95-2.67,3.16-2.67s3.16,1.13,3.16,2.67v.81c0,1.53-.95,2.66-3.16,2.66s-3.16-1.13-3.16-2.66m.44,4.71h5.44v17.73h-5.44v-17.73Z"/><path class="d" d="m75.03,194.3v-20.33h5.44v21.39h2.42v4.2h-2.46c-3.71,0-5.4-1.86-5.4-5.26"/><path class="d" d="m85.16,194.41c0-4.06,3.16-5.99,8.26-5.99h3.05v-1.21c0-1.86-.92-3.03-3.2-3.03-2.16,0-3.3,1.1-4.14,2.27l-3.23-2.85c1.54-2.26,3.74-3.65,7.78-3.65,5.44,0,8.23,2.48,8.23,7.01v8.41h1.8v4.2h-3.01c-1.8,0-3.12-1.14-3.56-2.89l-.11-.47h-.22c-.59,2.48-2.71,3.8-5.65,3.8-3.86,0-5.98-2.26-5.98-5.59m11.31-.66v-2.27h-2.65c-2.09,0-3.19.77-3.19,2.16v.55c0,1.39.92,2.04,2.54,2.04,1.8,0,3.3-.73,3.3-2.48"/><path class="d" d="m107.17,180.38h5.44v3.25h.22c.7-2.01,2.31-3.69,5.36-3.69,3.93,0,6.02,2.78,6.02,7.6v12.02h-5.43v-11.58c0-2.45-.7-3.65-2.68-3.65-1.76,0-3.48.91-3.48,2.81v12.42h-5.44v-19.18Z"/><path class="d" d="m127.92,189.95c0-6.5,2.54-10.01,7.42-10.01,2.5,0,4.63,1.54,5.18,3.66h.18v-9.63h5.44v25.59h-5.44v-3.22h-.18c-.55,2.08-2.68,3.66-5.18,3.66-4.88,0-7.42-3.55-7.42-10.05m12.78,2.85v-5.66c0-1.75-1.5-2.81-3.56-2.81s-3.56,1.57-3.56,3.98v3.32c0,2.41,1.5,3.98,3.56,3.98s3.56-1.06,3.56-2.81"/><path class="d" d="m159.03,173.97h12.11c4.78,0,7.78,3.32,7.78,8.15s-3.01,8.15-7.78,8.15h-6.53v9.29h-5.58v-25.59Zm11.45,11.47c1.65,0,2.68-.88,2.68-2.52v-1.61c0-1.64-1.03-2.52-2.68-2.52h-5.87v6.65h5.87Z"/><path class="d" d="m181.31,189.95c0-6.18,3.38-10.01,9.03-10.01s9.03,3.83,9.03,10.01-3.37,10.05-9.03,10.05-9.03-3.87-9.03-10.05m12.41,1.97v-3.91c0-2.41-1.25-3.8-3.38-3.8s-3.37,1.39-3.37,3.8v3.91c0,2.41,1.25,3.8,3.37,3.8s3.38-1.39,3.38-3.8"/><path class="d" d="m201.4,196.56l3.19-3.22c1.36,1.5,3.01,2.45,5.1,2.45s2.86-.7,2.86-1.83c0-.95-.59-1.42-1.94-1.6l-2.09-.25c-4.37-.55-6.5-2.45-6.5-5.92,0-3.69,2.9-6.25,7.49-6.25,4.04,0,5.91,1.1,7.86,3l-3.12,3.18c-1.21-1.21-2.82-1.98-4.44-1.98-1.84,0-2.57.66-2.57,1.61,0,1.02.44,1.57,2.02,1.79l2.17.29c4.18.55,6.35,2.45,6.35,5.77,0,3.69-3.31,6.39-8.26,6.39-3.71,0-6.13-1.24-8.11-3.44"/><path class="h" d="m0,0h0l199.99,100C217.13,53.98,253.98,17.13,300,0H0Z"/><path class="f" d="m300,0H0l200,100C217.14,53.98,253.98,17.13,300,0"/><path class="d" d="m181.51,32.28L160,0H0l168.08,50.43c10.77,3.23,19.67-8.8,13.43-18.15"/><polygon class="e" points="300 0 160.01 0 181.52 32.28 300 0"/><polygon class="g" points="168.08 50.43 0 0 200 100 168.08 50.43"/></g></svg>